# xmcd
#
# Track frame offsets: 
#        150
#        21638
#        46110
#        66772
#        92981
#        110229
#        129242
#        150943
#        166781
#        184484
#        200606
#        217861
#
# Disc length: 3106 seconds
#
# Revision: 3
# Processed by: cddbd v1.5.2PL0 Copyright (c) Steve Scherf et al.
# Submitted via: ExactAudioCopyFreeDBPlugin 1.0
#
DISCID=a40c200c
DTITLE=Mavis Staples - Have A Little Faith
DYEAR=2004
DGENRE=Soul
TTITLE0=Step Into the Light
TTITLE1=Pop's Recipe
TTITLE2=Have a Little Faith
TTITLE3=God is Not Sleeping
TTITLE4=A Dying Man's Plea
TTITLE5=Ain't No Better Than You
TTITLE6=I Wanna Thank You
TTITLE7=I Still Believe in You
TTITLE8=At the End of the Day
TTITLE9=There's a Devil on the Loose
TTITLE10=In Times Like These
TTITLE11=Will the Circle Be Unbroken
EXTD=
EXTT0=
EXTT1=
EXTT2=
EXTT3=
EXTT4=
EXTT5=
EXTT6=
EXTT7=
EXTT8=
EXTT9=
EXTT10=
EXTT11=
PLAYORDER=
